<svg xmlns="http://www.w3.org/2000/svg" viewBox="0 0 110 83.42"><title>Recurso 3</title><g id="Capa_2" data-name="Capa 2"><g id="Capa_1-2" data-name="Capa 1"><path d="M70.85,0h-8L60.41,11.12H51.25L53.6,0H45.54L39.28,29.58h8L50,17.05h9.2L56.49,29.58h.09l-1.2,5.68a6.66,6.66,0,0,1-1.73,3.55A4.36,4.36,0,0,1,50.49,40,7.63,7.63,0,0,1,49,39.82a14.16,14.16,0,0,1-1.86-.52l-1.67,6.45a10.7,10.7,0,0,0,2.6.84,16.59,16.59,0,0,0,3.13.27,12,12,0,0,0,7.69-2.25q2.81-2.25,3.82-7l1.72-8h.14Z"/><path d="M6.77,71.65h3.8l1.85,11.47h-3l-.3-2.45H4.59L3.22,83.12H0Zm1.54,2.24L5.77,78.51H8.85Z"/><path d="M15.68,71.65h3.07L17.36,78a8,8,0,0,0-.14.83,5.13,5.13,0,0,0,0,.54v.26a1.41,1.41,0,0,0,.46,1.08,1.62,1.62,0,0,0,1.16.45,1.75,1.75,0,0,0,1.45-.7,7.09,7.09,0,0,0,1-2.57l1.38-6.28h3l-1.47,7.13a6,6,0,0,1-1.81,3.53,5.48,5.48,0,0,1-3.66,1.11,5,5,0,0,1-3.32-1,3.53,3.53,0,0,1-1.17-2.85c0-.14,0-.27,0-.41a2.56,2.56,0,0,1,0-.39c0-.13,0-.26,0-.38a3,3,0,0,1,.09-.38Z"/><path d="M27,71.65h8.87l-.47,2.21H32.45l-2,9.26H27.39l2-9.26H26.52Z"/><path d="M42,71.39a5.12,5.12,0,0,1,3.71,1.31,4.76,4.76,0,0,1,1.34,3.61,7.91,7.91,0,0,1-.37,2.43,7.36,7.36,0,0,1-1,2.1,6.36,6.36,0,0,1-2.27,1.9,6.47,6.47,0,0,1-2.93.66,5.13,5.13,0,0,1-3.74-1.32,4.92,4.92,0,0,1-1.34-3.66,8,8,0,0,1,.34-2.36,6.54,6.54,0,0,1,.94-2,6.44,6.44,0,0,1,2.32-2A6.64,6.64,0,0,1,42,71.39Zm1.89,4.76A4.15,4.15,0,0,0,43.79,75a2,2,0,0,0-.42-.82,1.85,1.85,0,0,0-1.54-.69,2.33,2.33,0,0,0-1.31.41,4.13,4.13,0,0,0-1.12,1.21,5.8,5.8,0,0,0-.65,1.59,7.77,7.77,0,0,0-.19.91,6.84,6.84,0,0,0-.06.91,3,3,0,0,0,.55,1.9,1.84,1.84,0,0,0,1.53.7,2.3,2.3,0,0,0,1.29-.39A4.36,4.36,0,0,0,43,79.52,5.35,5.35,0,0,0,43.67,78a7.77,7.77,0,0,0,.19-.91A6.92,6.92,0,0,0,43.92,76.15Z"/><path d="M50,71.65h3.39a6.47,6.47,0,0,1,3.56.76,2.63,2.63,0,0,1,1.14,2.35,3.9,3.9,0,0,1-1.31,3.1A5.41,5.41,0,0,1,53.16,79h-.7l-.93,0-.91,4.18h-3Zm2.61,2.07L52,76.8h.81a2.86,2.86,0,0,0,1.72-.46,1.52,1.52,0,0,0,.61-1.27,1.19,1.19,0,0,0-.47-1,2.12,2.12,0,0,0-1.32-.35Z"/><path d="M63.26,71.65h3.8l1.85,11.47h-3l-.3-2.45H61.08l-1.37,2.45H56.49Zm1.53,2.24-2.54,4.62h3.09Z"/><path d="M72.2,71.65h4.32a5.5,5.5,0,0,1,3.08.71,2.42,2.42,0,0,1,1,2.13,2.58,2.58,0,0,1-.82,2,3.79,3.79,0,0,1-2.33.9,2.25,2.25,0,0,1,.72.68,3.29,3.29,0,0,1,.42,1.14l.84,3.9h-3l-.8-3.69a1,1,0,0,0-.41-.67,1.81,1.81,0,0,0-1-.2h-.55l-1,4.56h-3Zm2.52,2.1-.54,2.68h1.09A2.9,2.9,0,0,0,76.91,76a1.23,1.23,0,0,0,.59-1.1,1.06,1.06,0,0,0-.4-.89,2,2,0,0,0-1.19-.3Z"/><path d="M82.28,71.65h8.87l-.47,2.21H87.75l-2,9.26H82.7l2-9.26H81.83Z"/><path d="M92.43,71.65h8.07L100,73.78H95l-.48,2.31h4.73l-.44,2.06H94.1L93.5,81h5.2l-.46,2.15H90Z"/><path d="M110,71.92l-.71,2.23a7.27,7.27,0,0,0-1.27-.42,5.83,5.83,0,0,0-1.33-.14,3.31,3.31,0,0,0-1.57.3,1,1,0,0,0-.54.87c0,.41.41.79,1.23,1.13.32.13.58.24.77.34a5.63,5.63,0,0,1,1.94,1.35,2.66,2.66,0,0,1,.52,1.69,3.63,3.63,0,0,1-1.43,3,6.21,6.21,0,0,1-3.9,1.11,12.86,12.86,0,0,1-2-.15,10.13,10.13,0,0,1-1.82-.47l.66-2.37a6.61,6.61,0,0,0,1.41.53,5.14,5.14,0,0,0,1.3.18,3.74,3.74,0,0,0,1.85-.39,1.14,1.14,0,0,0,.68-1c0-.55-.59-1.07-1.79-1.55l-.4-.15-.31-.13a3.39,3.39,0,0,1-1.45-1.08,2.79,2.79,0,0,1-.47-1.62,3.25,3.25,0,0,1,1.33-2.69,5.51,5.51,0,0,1,3.49-1,18.06,18.06,0,0,1,2.19.12A7.76,7.76,0,0,1,110,71.92Z"/><path d="M93,43.8c.12-1.92,6.52-1.09,6.52-1.09l-.27-5c0-2.41-5.49-2.83-11-3.25-2.59-1.82-1.35-3.5-.54-5.21l-10-.54v2.88c3.69,1.28,6.4,3.85,5.53,7.11,0,0-5.26,9.08-29.66,9.85s-30-9.9-30-9.9c-.28-1.67-.11-3.11,1.2-3.95l-1.2-4.79H19.75a5,5,0,0,1,1.44,3.83c-.12,1.17-11.5,3.59-11.5,3.59v6.59h6a20.65,20.65,0,0,1-4.79,2.75l-.24,7.19,1.2,1.43s11.64-2.3,15.32-1.2,3.5,3.27,3.5,3.27l.09,6.79,9.34,1a17.86,17.86,0,0,1,13.83-6.18c9.18,0,16.58,6.18,16.58,6.18s-6.35-7.3-16.4-7.3-14,6.64-14,6.64V59.24s1.83-5.56,14-5.56,16.52,5.56,16.52,5.56l-.12,5.87L80,63.82V58.34a4.23,4.23,0,0,1-.14-.46h0s-1.34-4.65-.43-6.36c1.66-3.12,18.4-1.41,18.4-1.41v3.66s-12.42-.84-14.69-.64S80,54.45,79.82,55.6a2.56,2.56,0,0,1,2.12-1.74c3.41-.72,15.86.47,15.86.47l2.64-2.39v-5S92.89,45.85,93,43.8M99,39l.23,3.37a10.35,10.35,0,0,0-5.76.57l0-2.26c1.83-2.25,4-1.77,5.57-1.68M15.53,42.72l-5.27.06V37.93s7.27.19,7.27,2.64-2,2.15-2,2.15M30,55c-4-3.44-9.57-1.58-17.59-.39v-5c9.7-1.47,14.84-1.62,17.59,1.49Z"/></g></g></svg>